<svg width="30" height="37" viewBox="0 0 30 37" fill="none" xmlns="http://www.w3.org/2000/svg">
<path d="M21.195 28.285C20.055 28.285 19.125 28.06 18.405 27.61C17.715 27.13 17.325 26.365 17.235 25.315C16.305 27.205 14.85 28.105 12.87 28.015C11.28 27.955 10.14 27.34 9.45 26.17C8.79 24.97 8.58 23.275 8.82 21.085L9.315 16.54C9.555 14.32 10.125 12.64 11.025 11.5C11.955 10.36 13.215 9.82 14.805 9.88C16.665 9.91 17.895 10.84 18.495 12.67L18.765 10.06H23.085L21.735 23.065C21.645 23.815 21.945 24.19 22.635 24.19C23.265 24.19 23.805 23.875 24.255 23.245C24.705 22.615 25.08 21.805 25.38 20.815C25.68 19.825 25.89 18.73 26.01 17.53C26.16 16.33 26.235 15.16 26.235 14.02C26.235 12.61 26.055 11.32 25.695 10.15C25.365 8.98 24.825 7.99 24.075 7.18C23.355 6.34 22.425 5.695 21.285 5.245C20.175 4.765 18.84 4.525 17.28 4.525C15.27 4.525 13.5 4.915 11.97 5.695C10.47 6.475 9.21 7.585 8.19 9.025C7.17 10.465 6.39 12.22 5.85 14.29C5.34 16.33 5.085 18.625 5.085 21.175C5.085 24.805 5.94 27.67 7.65 29.77C9.36 31.87 12 32.92 15.57 32.92C16.41 32.92 17.22 32.875 18 32.785C18.78 32.695 19.545 32.545 20.295 32.335C21.045 32.095 21.795 31.78 22.545 31.39C23.325 30.97 24.105 30.46 24.885 29.86L24.525 34.18C23.025 35.17 21.525 35.83 20.025 36.16C18.555 36.52 16.98 36.7 15.3 36.7C12.78 36.7 10.605 36.31 8.775 35.53C6.945 34.78 5.445 33.715 4.275 32.335C3.105 30.925 2.235 29.26 1.665 27.34C1.125 25.42 0.855 23.29 0.855 20.95C0.855 18.16 1.2 15.55 1.89 13.12C2.58 10.66 3.615 8.515 4.995 6.685C6.375 4.825 8.1 3.37 10.17 2.32C12.24 1.24 14.67 0.7 17.46 0.7C19.83 0.7 21.81 1.045 23.4 1.735C25.02 2.425 26.31 3.37 27.27 4.57C28.23 5.77 28.92 7.18 29.34 8.8C29.76 10.39 29.97 12.1 29.97 13.93C29.97 16.69 29.67 19 29.07 20.86C28.5 22.69 27.765 24.16 26.865 25.27C25.995 26.38 25.05 27.16 24.03 27.61C23.01 28.06 22.065 28.285 21.195 28.285ZM13.185 20.86C13.065 21.91 13.185 22.66 13.545 23.11C13.905 23.56 14.43 23.8 15.12 23.83C15.81 23.86 16.365 23.665 16.785 23.245C17.235 22.795 17.52 22.045 17.64 20.995L18.09 16.72C18.18 15.85 18.03 15.22 17.64 14.83C17.25 14.41 16.755 14.2 16.155 14.2C15.465 14.17 14.895 14.38 14.445 14.83C13.995 15.25 13.71 15.985 13.59 17.035L13.185 20.86Z" fill="white"/>
</svg>
